<svg width="21" height="21" viewBox="0 0 21 21" fill="none" xmlns="http://www.w3.org/2000/svg">
<path d="M0.75 3.28125C0.75 2.60992 1.01668 1.96609 1.49139 1.49139C1.96609 1.01668 2.60992 0.75 3.28125 0.75H5.8125C6.48383 0.75 7.12766 1.01668 7.60236 1.49139C8.07707 1.96609 8.34375 2.60992 8.34375 3.28125V5.8125C8.34375 6.48383 8.07707 7.12766 7.60236 7.60236C7.12766 8.07707 6.48383 8.34375 5.8125 8.34375H3.28125C2.60992 8.34375 1.96609 8.07707 1.49139 7.60236C1.01668 7.12766 0.75 6.48383 0.75 5.8125V3.28125ZM0.75 14.25C0.75 13.5787 1.01668 12.9348 1.49139 12.4601C1.96609 11.9854 2.60992 11.7188 3.28125 11.7188H5.8125C6.48383 11.7188 7.12766 11.9854 7.60236 12.4601C8.07707 12.9348 8.34375 13.5787 8.34375 14.25V16.7812C8.34375 17.4526 8.07707 18.0964 7.60236 18.5711C7.12766 19.0458 6.48383 19.3125 5.8125 19.3125H3.28125C2.60992 19.3125 1.96609 19.0458 1.49139 18.5711C1.01668 18.0964 0.75 17.4526 0.75 16.7812V14.25ZM11.7188 3.28125C11.7188 2.60992 11.9854 1.96609 12.4601 1.49139C12.9348 1.01668 13.5787 0.75 14.25 0.75H16.7812C17.4526 0.75 18.0964 1.01668 18.5711 1.49139C19.0458 1.96609 19.3125 2.60992 19.3125 3.28125V5.8125C19.3125 6.48383 19.0458 7.12766 18.5711 7.60236C18.0964 8.07707 17.4526 8.34375 16.7812 8.34375H14.25C13.5787 8.34375 12.9348 8.07707 12.4601 7.60236C11.9854 7.12766 11.7188 6.48383 11.7188 5.8125V3.28125ZM11.7188 14.25C11.7188 13.5787 11.9854 12.9348 12.4601 12.4601C12.9348 11.9854 13.5787 11.7188 14.25 11.7188H16.7812C17.4526 11.7188 18.0964 11.9854 18.5711 12.4601C19.0458 12.9348 19.3125 13.5787 19.3125 14.25V16.7812C19.3125 17.4526 19.0458 18.0964 18.5711 18.5711C18.0964 19.0458 17.4526 19.3125 16.7812 19.3125H14.25C13.5787 19.3125 12.9348 19.0458 12.4601 18.5711C11.9854 18.0964 11.7188 17.4526 11.7188 16.7812V14.25Z" stroke="#666F74" stroke-width="1.5" stroke-linecap="round" stroke-linejoin="round"/>
</svg>
